<?xml version="1.0" encoding="iso-8859-1"?>
<!-- Generator: Adobe Illustrator 19.0.0, SVG Export Plug-In . SVG Version: 6.00 Build 0)  -->
<svg version="1.1" id="Capa_1" xmlns="http://www.w3.org/2000/svg" xmlns:xlink="http://www.w3.org/1999/xlink" x="0px" y="0px"
	 viewBox="0 0 470 470" style="enable-background:new 0 0 470 470;" xml:space="preserve">
<g>
	<path style="fill:#FCDB5A;" d="M379.254,90.746c-1.5-1.5-2.872-3.094-4.111-4.768L235.864,225.258l8.879,8.879L384.022,94.858
		C382.348,93.618,380.754,92.246,379.254,90.746z"/>
	
		<rect x="401.352" y="35.363" transform="matrix(-0.7071 -0.7071 0.7071 -0.7071 701.8071 373.9827)" style="fill:#FCDB5A;" width="54.012" height="12.558"/>
	<path style="fill:#4D3D36;" d="M467.803,50.995L419.005,2.197c-2.928-2.929-7.677-2.929-10.606,0l-19.486,19.486l-9.658,9.659
		c-7.934,7.934-12.304,18.482-12.304,29.703c0,3.616,0.46,7.161,1.341,10.573L223.554,216.355c-1.822,0.07-3.625,0.792-5.016,2.183
		l-29.544,29.543l-38.935-38.935c-2.929-2.929-7.678-2.929-10.606,0L2.197,346.403c-2.207,2.207-2.816,5.55-1.531,8.394
		c11.176,24.714,27.012,47.415,47.068,67.47c20.055,20.055,42.755,35.891,67.47,47.067c0.992,0.449,2.044,0.667,3.088,0.667
		c1.949,0,3.868-0.76,5.305-2.197l137.256-137.256c2.929-2.929,2.929-7.678,0-10.606l-38.937-38.937l29.544-29.543
		c1.338-1.337,2.109-3.129,2.182-5.011l144.741-144.74c3.412,0.881,6.956,1.341,10.572,1.341c11.22,0,21.769-4.37,29.703-12.304
		l9.659-9.658l19.486-19.486C470.733,58.673,470.733,53.924,467.803,50.995z M443.014,65.178l-38.192-38.192l8.88-8.879
		l38.192,38.192L443.014,65.178z M78.952,317.509c-2.929-2.929-7.678-2.929-10.606,0L22.015,363.84
		c-1.934-3.47-3.772-6.984-5.494-10.548l110.17-110.17c-9.197,19.838-21.607,37.649-37.132,53.174
		c-2.929,2.929-2.929,7.678,0,10.606c1.464,1.464,3.384,2.197,5.303,2.197s3.839-0.732,5.303-2.197
		c22.006-22.006,38.244-48.215,48.387-78.05l29.835,29.835l-15.91,15.91c-2.929,2.929-2.929,7.678,0,10.606
		c1.464,1.464,3.384,2.197,5.303,2.197s3.839-0.732,5.303-2.197l21.213-21.213l29.544-29.543l11.71,11.71l-29.544,29.543
		l-21.213,21.213c-2.929,2.929-2.929,7.678,0,10.606c1.464,1.464,3.384,2.197,5.303,2.197s3.839-0.732,5.303-2.197l15.91-15.91
		l29.841,29.841c-29.835,10.143-56.047,26.377-78.053,48.383l-70.14,70.14c-12.267-8.083-23.846-17.543-34.618-28.315
		c-10.772-10.772-20.233-22.35-28.315-34.617l48.927-48.927C81.882,325.187,81.882,320.438,78.952,317.509z M106.161,447.985
		l67.544-67.544c15.526-15.526,33.337-27.938,53.178-37.135L116.709,453.48C113.144,451.757,109.631,449.919,106.161,447.985z
		 M235.864,225.258L375.143,85.979c1.24,1.674,2.611,3.268,4.111,4.768s3.094,2.872,4.768,4.112L244.743,234.136L235.864,225.258z
		 M408.956,88.05c-7.213,0-13.995-2.81-19.096-7.91s-7.91-11.882-7.91-19.096c0-7.214,2.81-13.996,7.91-19.096l4.355-4.355
		l38.192,38.192l-4.355,4.355C422.951,85.24,416.17,88.05,408.956,88.05z"/>
	<path style="fill:#BCC987;" d="M173.705,380.441l-67.544,67.544c3.47,1.934,6.984,3.772,10.548,5.494l110.174-110.174
		C207.042,352.503,189.23,364.916,173.705,380.441z"/>
	<path style="fill:#BCC987;" d="M30.025,377.042c8.082,12.267,17.543,23.845,28.315,34.617
		c10.772,10.772,22.35,20.233,34.618,28.315l70.14-70.14c22.006-22.006,48.218-38.24,78.053-48.383l-29.841-29.841l-15.91,15.91
		c-1.464,1.464-3.384,2.197-5.303,2.197s-3.839-0.732-5.303-2.197c-2.929-2.929-2.929-7.677,0-10.606l21.213-21.213l29.544-29.543
		l-11.71-11.71l-29.544,29.543l-21.213,21.213c-1.464,1.464-3.384,2.197-5.303,2.197s-3.839-0.732-5.303-2.197
		c-2.929-2.929-2.929-7.677,0-10.606l15.91-15.91l-29.835-29.835c-10.143,29.834-26.381,56.044-48.387,78.05
		c-1.464,1.464-3.384,2.197-5.303,2.197s-3.839-0.732-5.303-2.197c-2.929-2.929-2.929-7.678,0-10.606
		c15.525-15.525,27.935-33.336,37.132-53.174l-110.17,110.17c1.723,3.564,3.561,7.078,5.494,10.548l46.331-46.331
		c2.929-2.929,7.678-2.929,10.606,0c2.929,2.929,2.929,7.678,0,10.606L30.025,377.042z"/>
</g>
<g>
</g>
<g>
</g>
<g>
</g>
<g>
</g>
<g>
</g>
<g>
</g>
<g>
</g>
<g>
</g>
<g>
</g>
<g>
</g>
<g>
</g>
<g>
</g>
<g>
</g>
<g>
</g>
<g>
</g>
</svg>
