<?xml version="1.0" encoding="iso-8859-1"?>
<!-- Generator: Adobe Illustrator 19.0.0, SVG Export Plug-In . SVG Version: 6.00 Build 0)  -->
<svg version="1.1" id="Capa_1" xmlns="http://www.w3.org/2000/svg" xmlns:xlink="http://www.w3.org/1999/xlink" x="0px" y="0px"
	 viewBox="0 0 470 470" style="enable-background:new 0 0 470 470;" xml:space="preserve">
<g>
	<path style="fill:#FCDB5A;" d="M406.916,229.306v-26.733l-68.584-6.423v41.594c0,4.142-3.358,7.5-7.5,7.5s-7.5-3.358-7.5-7.5
		v-42.999l-42.395-3.97v92.312v43.789h14.937c3.817-44.598,41.331-79.727,86.901-79.727c11.157,0,21.831,2.109,31.647,5.944v-16.286
		C410.273,236.806,406.916,233.448,406.916,229.306z"/>
	<path style="fill:#FCDB5A;" d="M265.936,326.875v-36.289h-20.657c1.197,7.313,1.83,14.814,1.83,22.461
		c0,4.614-0.233,9.24-0.69,13.828H265.936z"/>
	<path style="fill:#FFFFFF;" d="M241.96,275.586h23.976v-92.975c0-0.01,0-119.213,0-119.213H116.055v12.5c0,4.142-3.358,7.5-7.5,7.5
		s-7.5-3.358-7.5-7.5v-12.5h-37.97v118.815c12.195-4.248,24.98-6.797,37.97-7.508v-68.807c0-4.142,3.358-7.5,7.5-7.5
		s7.5,3.358,7.5,7.5v68.799C176.171,177.92,226.229,219.639,241.96,275.586z"/>
	<path style="fill:#5D734F;" d="M108.555,219.492C56.968,219.492,15,261.46,15,313.047s41.968,93.555,93.555,93.555
		s93.555-41.968,93.555-93.555S160.141,219.492,108.555,219.492z M108.555,371.602C76.268,371.602,50,345.334,50,313.047
		s26.268-58.555,58.555-58.555s58.555,26.268,58.555,58.555S140.842,371.602,108.555,371.602z"/>
	<path style="fill:#4D3D36;" d="M108.555,204.492C48.697,204.492,0,253.189,0,313.047s48.697,108.555,108.555,108.555
		s108.555-48.697,108.555-108.555S168.412,204.492,108.555,204.492z M108.555,406.602C56.968,406.602,15,364.633,15,313.047
		s41.968-93.555,93.555-93.555s93.555,41.968,93.555,93.555S160.141,406.602,108.555,406.602z"/>
	<path style="fill:#BCC987;" d="M108.555,269.492C84.539,269.492,65,289.031,65,313.047s19.539,43.555,43.555,43.555
		s43.555-19.539,43.555-43.555S132.571,269.492,108.555,269.492z"/>
	<path style="fill:#4D3D36;" d="M108.555,254.492C76.268,254.492,50,280.76,50,313.047s26.268,58.555,58.555,58.555
		s58.555-26.268,58.555-58.555S140.842,254.492,108.555,254.492z M108.555,356.602C84.539,356.602,65,337.063,65,313.047
		s19.539-43.555,43.555-43.555s43.555,19.539,43.555,43.555S132.571,356.602,108.555,356.602z"/>
	<path style="fill:#5D734F;" d="M382.773,262.148c-39.826,0-72.227,32.401-72.227,72.227s32.401,72.227,72.227,72.227
		S455,374.201,455,334.375S422.599,262.148,382.773,262.148z M382.773,371.602c-20.527,0-37.227-16.7-37.227-37.227
		s16.7-37.227,37.227-37.227S420,313.848,420,334.375S403.3,371.602,382.773,371.602z"/>
	<path style="fill:#4D3D36;" d="M414.42,253.092c-9.816-3.835-20.489-5.944-31.647-5.944c-45.57,0-83.084,35.128-86.901,79.727
		h-14.937v-43.789v-92.312l42.395,3.97v42.999c0,4.142,3.358,7.5,7.5,7.5s7.5-3.358,7.5-7.5V196.15l68.584,6.423v26.733
		c0,4.142,3.358,7.5,7.5,7.5c4.144-0.003,7.5-3.359,7.5-7.5v-33.564c0-3.871-2.946-7.106-6.801-7.467l-76.784-7.191v-32.686h3.784
		c4.142,0,7.5-3.358,7.5-7.5s-3.358-7.5-7.5-7.5h-11.284c-4.142,0-7.5,3.358-7.5,7.5v38.781l-42.395-3.97V63.398h12.5
		c4.142,0,7.5-3.358,7.5-7.5s-3.358-7.5-7.5-7.5H55.584c-4.142,0-7.5,3.358-7.5,7.5v132.536
		c-9.824,4.771-19.109,10.711-27.62,17.738c-3.194,2.637-3.646,7.364-1.009,10.559c2.637,3.194,7.363,3.645,10.559,1.009
		c22.063-18.216,49.956-28.248,78.54-28.248c68.128,0,123.555,55.426,123.555,123.555c0,6.743-0.55,13.51-1.636,20.113
		c-0.671,4.087,2.097,7.945,6.185,8.617c0.412,0.067,0.821,0.1,1.226,0.1c0.108,0,0.214-0.01,0.321-0.014
		c0.08,0.002,0.158,0.012,0.238,0.012h27.493v15.001h-28.062c-4.142,0-7.5,3.358-7.5,7.5s3.358,7.5,7.5,7.5h35.562
		c4.142,0,7.5-3.358,7.5-7.5v-22.501h14.937c3.817,44.598,41.331,79.727,86.901,79.727c48.097,0,87.227-39.13,87.227-87.227
		C470,297.436,446.917,265.789,414.42,253.092z M382.773,406.602c-39.826,0-72.227-32.401-72.227-72.227
		s32.401-72.227,72.227-72.227S455,294.549,455,334.375S422.599,406.602,382.773,406.602z M108.555,98.398
		c-4.142,0-7.5,3.358-7.5,7.5v68.807c-12.99,0.711-25.776,3.26-37.97,7.508V63.398h37.97v12.5c0,4.142,3.358,7.5,7.5,7.5
		s7.5-3.358,7.5-7.5v-12.5h149.881v119.203c0,0.01,0,92.985,0,92.985H241.96c-15.731-55.947-65.789-97.666-125.905-100.889v-68.799
		C116.055,101.756,112.697,98.398,108.555,98.398z M245.279,290.586h20.657v36.289H246.42c0.456-4.589,0.69-9.214,0.69-13.828
		C247.109,305.4,246.477,297.899,245.279,290.586z"/>
	<path style="fill:#BCC987;" d="M382.773,312.148c-12.256,0-22.227,9.971-22.227,22.227s9.971,22.227,22.227,22.227
		S405,346.631,405,334.375S395.029,312.148,382.773,312.148z"/>
	<path style="fill:#4D3D36;" d="M382.773,297.148c-20.527,0-37.227,16.7-37.227,37.227s16.7,37.227,37.227,37.227
		S420,354.902,420,334.375S403.3,297.148,382.773,297.148z M382.773,356.602c-12.256,0-22.227-9.971-22.227-22.227
		s9.971-22.227,22.227-22.227S405,322.119,405,334.375S395.029,356.602,382.773,356.602z"/>
</g>
<g>
</g>
<g>
</g>
<g>
</g>
<g>
</g>
<g>
</g>
<g>
</g>
<g>
</g>
<g>
</g>
<g>
</g>
<g>
</g>
<g>
</g>
<g>
</g>
<g>
</g>
<g>
</g>
<g>
</g>
</svg>
