<?xml version="1.0" encoding="iso-8859-1"?>
<!-- Generator: Adobe Illustrator 19.0.0, SVG Export Plug-In . SVG Version: 6.00 Build 0)  -->
<svg version="1.1" id="Capa_1" xmlns="http://www.w3.org/2000/svg" xmlns:xlink="http://www.w3.org/1999/xlink" x="0px" y="0px"
	 viewBox="0 0 470 470" style="enable-background:new 0 0 470 470;" xml:space="preserve">
<g>
	<polygon style="fill:#FFE6B8;" points="362.5,232.231 391.178,203.07 391.178,157.278 362.5,186.438 	"/>
	<path style="fill:#FFE6B8;" d="M355,268.054c-4.143,0-7.5-3.357-7.5-7.5v-6.93l-28.679-29.161v45.792l28.679,29.162v-8.863
		c0-4.143,3.357-7.5,7.5-7.5C355.003,283.054,355.003,268.054,355,268.054z"/>
	<polygon style="fill:#FFE6B8;" points="391.178,291.648 362.5,320.809 362.5,366.602 391.178,337.441 	"/>
	<path style="fill:#FFE6B8;" d="M242.5,155.075v8.863l28.678-29.16V88.985l-28.678,29.16v6.931c0,4.142-3.357,7.498-7.498,7.5v15
		C239.143,147.577,242.5,150.934,242.5,155.075z"/>
	<polygon style="fill:#FFE6B8;" points="227.5,185.33 198.822,156.17 198.822,201.964 227.5,231.124 	"/>
	<polygon style="fill:#FFE6B8;" points="271.178,223.356 242.5,252.516 242.5,298.309 271.178,269.148 	"/>
	<polygon style="fill:#FFE6B8;" points="122.5,232.231 151.178,203.071 151.178,157.277 122.5,186.438 	"/>
	<polygon style="fill:#FFE6B8;" points="107.5,253.623 78.822,224.463 78.822,270.255 107.5,299.417 	"/>
	<path style="fill:#FFE6B8;" d="M151.178,337.441v-45.793L122.5,320.809v6.93c0,4.142-3.356,7.498-7.497,7.5v15
		c4.141,0.002,7.497,3.358,7.497,7.5v8.863L151.178,337.441z"/>
	<polygon style="fill:#FCDB5A;" points="347.5,320.809 318.822,291.648 318.822,337.441 347.5,366.602 	"/>
	<path style="fill:#FCDB5A;" d="M362.5,260.554c0,4.142-3.356,7.499-7.498,7.5v15c4.141,0.001,7.498,3.358,7.498,7.5v8.863
		l28.678-29.161v-45.792L362.5,253.624V260.554z"/>
	<polygon style="fill:#FCDB5A;" points="318.822,203.07 347.5,232.231 347.5,186.438 318.822,157.278 	"/>
	<polygon style="fill:#FCDB5A;" points="227.5,252.516 198.822,223.355 198.822,269.148 227.5,298.309 	"/>
	<polygon style="fill:#FCDB5A;" points="242.5,231.123 271.178,201.963 271.178,156.17 242.5,185.33 	"/>
	<path style="fill:#FCDB5A;" d="M198.822,88.984v45.794l28.678,29.16v-8.863c0-4.143,3.358-7.5,7.5-7.5c0.003,0,0.003-15,0.003-15
		c-4.145,0-7.503-3.357-7.503-7.5v-6.93L198.822,88.984z"/>
	<path style="fill:#FCDB5A;" d="M115,335.239c-4.142,0-7.5-3.357-7.5-7.5v-6.93l-28.678-29.161v45.793l28.678,29.161v-8.863
		c0-4.143,3.358-7.5,7.5-7.5C115.003,350.239,115.003,335.239,115,335.239z"/>
	<polygon style="fill:#FCDB5A;" points="122.5,299.417 151.178,270.255 151.178,224.463 122.5,253.624 	"/>
	<polygon style="fill:#FCDB5A;" points="78.822,203.071 107.5,232.231 107.5,186.438 78.822,157.277 	"/>
	<path style="fill:#4D3D36;" d="M398.678,68.293c-4.143,0-7.5,3.357-7.5,7.5v60.092L362.5,165.046V75.793c0-4.143-3.357-7.5-7.5-7.5
		s-7.5,3.357-7.5,7.5v89.253l-28.679-29.161V75.793c0-4.143-3.357-7.5-7.5-7.5s-7.5,3.357-7.5,7.5v264.719
		c0,1.968,0.773,3.856,2.152,5.259l41.526,42.225V462.5c0,4.143,3.357,7.5,7.5,7.5s7.5-3.357,7.5-7.5v-74.505l41.525-42.224
		c1.379-1.402,2.152-3.291,2.152-5.259V75.793C406.178,71.65,402.821,68.293,398.678,68.293z M391.178,270.255L362.5,299.417v-8.863
		c0-4.142-3.356-7.499-7.498-7.5c-4.145,0-7.502,3.357-7.502,7.5v8.863l-28.679-29.162v-45.792l28.679,29.161v6.93
		c0,4.143,3.357,7.5,7.5,7.5c4.144-0.001,7.5-3.358,7.5-7.5v-6.93l28.678-29.161V270.255z M391.178,203.07L362.5,232.231v-45.793
		l28.678-29.161V203.07z M347.5,232.231l-28.679-29.161v-45.793l28.679,29.161V232.231z M318.822,291.648l28.679,29.161v45.793
		l-28.679-29.161V291.648z M362.5,320.809l28.678-29.161v45.793L362.5,366.602V320.809z"/>
	<path style="fill:#4D3D36;" d="M158.678,68.293c-4.142,0-7.5,3.357-7.5,7.5v60.092L122.5,165.046V75.793c0-4.143-3.358-7.5-7.5-7.5
		s-7.5,3.357-7.5,7.5v89.253l-28.678-29.16V75.793c0-4.143-3.358-7.5-7.5-7.5s-7.5,3.357-7.5,7.5v264.719
		c0,1.968,0.773,3.856,2.153,5.259l41.525,42.224V462.5c0,4.143,3.358,7.5,7.5,7.5s7.5-3.357,7.5-7.5v-74.505l41.525-42.224
		c1.38-1.402,2.153-3.291,2.153-5.259V75.793C166.178,71.65,162.82,68.293,158.678,68.293z M115.003,350.239
		c-4.145,0-7.503,3.357-7.503,7.5v8.863l-28.678-29.161v-45.793l28.678,29.161v6.93c0,4.143,3.358,7.5,7.5,7.5
		c4.144-0.002,7.5-3.358,7.5-7.5v-6.93l28.678-29.161v45.793L122.5,366.602v-8.863C122.5,353.598,119.143,350.241,115.003,350.239z
		 M151.178,270.255L122.5,299.417v-45.793l28.678-29.161V270.255z M78.822,224.463l28.678,29.161v45.793l-28.678-29.161V224.463z
		 M151.178,203.071L122.5,232.231v-45.793l28.678-29.161V203.071z M107.5,232.231l-28.678-29.16v-45.794l28.678,29.161V232.231z"/>
	<path style="fill:#4D3D36;" d="M278.678,0c-4.143,0-7.5,3.357-7.5,7.5v60.092L242.5,96.752V7.5c0-4.143-3.358-7.5-7.5-7.5
		s-7.5,3.357-7.5,7.5v89.253l-28.678-29.16V7.5c0-4.143-3.358-7.5-7.5-7.5s-7.5,3.357-7.5,7.5v264.719
		c0,1.968,0.773,3.856,2.153,5.259l41.525,42.224V462.5c0,4.143,3.358,7.5,7.5,7.5s7.5-3.357,7.5-7.5V319.701l41.525-42.224
		c1.379-1.402,2.152-3.291,2.152-5.259V7.5C286.178,3.357,282.821,0,278.678,0z M235,132.575c4.144-0.002,7.5-3.358,7.5-7.5v-6.931
		l28.678-29.16v45.793l-28.678,29.16v-8.863c0-4.142-3.357-7.498-7.498-7.5c-4.145,0-7.503,3.357-7.503,7.5v8.863l-28.678-29.16
		V88.984l28.678,29.161v6.93C227.5,129.218,230.858,132.575,235,132.575z M271.178,201.963l-28.678,29.16V185.33l28.678-29.16
		V201.963z M198.822,156.17L227.5,185.33v45.793l-28.678-29.16V156.17z M198.822,223.355l28.678,29.161v45.793l-28.678-29.161
		V223.355z M242.5,252.516l28.678-29.16v45.793l-28.678,29.16V252.516z"/>
</g>
<g>
</g>
<g>
</g>
<g>
</g>
<g>
</g>
<g>
</g>
<g>
</g>
<g>
</g>
<g>
</g>
<g>
</g>
<g>
</g>
<g>
</g>
<g>
</g>
<g>
</g>
<g>
</g>
<g>
</g>
</svg>
